<svg width="8" height="6" viewBox="0 0 8 6" fill="none" xmlns="http://www.w3.org/2000/svg">
<path d="M0.473283 1.06004C0.411481 1.12172 0.362449 1.19498 0.328995 1.27563C0.29554 1.35628 0.27832 1.44273 0.27832 1.53004C0.27832 1.61735 0.29554 1.70381 0.328995 1.78446C0.362449 1.86511 0.411481 1.93837 0.473283 2.00004L3.53328 5.06004C3.59496 5.12184 3.66822 5.17088 3.74887 5.20433C3.82952 5.23778 3.91597 5.255 4.00328 5.255C4.0906 5.255 4.17705 5.23778 4.2577 5.20433C4.33835 5.17088 4.41161 5.12184 4.47328 5.06004L7.53328 2.00004C7.595 1.93832 7.64396 1.86505 7.67737 1.7844C7.71077 1.70376 7.72796 1.61733 7.72796 1.53004C7.72796 1.44276 7.71077 1.35632 7.67737 1.27568C7.64396 1.19504 7.595 1.12176 7.53328 1.06004C7.47156 0.998321 7.39829 0.949361 7.31764 0.915957C7.237 0.882554 7.15057 0.865362 7.06328 0.865362C6.97599 0.865362 6.88956 0.882554 6.80892 0.915957C6.72828 0.949361 6.655 0.998321 6.59328 1.06004L3.99995 3.64671L1.41328 1.06004C1.15328 0.806709 0.726616 0.806709 0.473283 1.06004Z" fill="#151515"/>
</svg>
