<svg width="16" height="16" viewBox="0 0 16 16" fill="none" xmlns="http://www.w3.org/2000/svg">
<path d="M4.47328 6.05992C4.41148 6.1216 4.36245 6.19486 4.32899 6.2755C4.29554 6.35615 4.27832 6.44261 4.27832 6.52992C4.27832 6.61723 4.29554 6.70369 4.32899 6.78434C4.36245 6.86499 4.41148 6.93824 4.47328 6.99992L7.53328 10.0599C7.59496 10.1217 7.66822 10.1708 7.74887 10.2042C7.82952 10.2377 7.91597 10.2549 8.00328 10.2549C8.0906 10.2549 8.17705 10.2377 8.2577 10.2042C8.33835 10.1708 8.41161 10.1217 8.47328 10.0599L11.5333 6.99992C11.595 6.9382 11.644 6.86492 11.6774 6.78428C11.7108 6.70364 11.728 6.61721 11.728 6.52992C11.728 6.44263 11.7108 6.3562 11.6774 6.27556C11.644 6.19492 11.595 6.12164 11.5333 6.05992C11.4716 5.9982 11.3983 5.94924 11.3176 5.91584C11.237 5.88243 11.1506 5.86524 11.0633 5.86524C10.976 5.86524 10.8896 5.88243 10.8089 5.91584C10.7283 5.94924 10.655 5.9982 10.5933 6.05992L7.99995 8.64659L5.41328 6.05992C5.15328 5.80659 4.72662 5.80659 4.47328 6.05992Z" fill="#B8B8B8"/>
</svg>
