<svg width="8" height="6" viewBox="0 0 8 6" fill="none" xmlns="http://www.w3.org/2000/svg">
<path d="M0.473283 1.05992C0.411481 1.1216 0.362449 1.19486 0.328995 1.2755C0.29554 1.35615 0.27832 1.44261 0.27832 1.52992C0.27832 1.61723 0.29554 1.70369 0.328995 1.78434C0.362449 1.86499 0.411481 1.93824 0.473283 1.99992L3.53328 5.05992C3.59496 5.12172 3.66822 5.17075 3.74887 5.20421C3.82952 5.23766 3.91597 5.25488 4.00328 5.25488C4.0906 5.25488 4.17705 5.23766 4.2577 5.20421C4.33835 5.17075 4.41161 5.12172 4.47328 5.05992L7.53328 1.99992C7.595 1.9382 7.64396 1.86492 7.67737 1.78428C7.71077 1.70364 7.72796 1.61721 7.72796 1.52992C7.72796 1.44263 7.71077 1.3562 7.67737 1.27556C7.64396 1.19492 7.595 1.12164 7.53328 1.05992C7.47156 0.998199 7.39829 0.949239 7.31764 0.915835C7.237 0.882432 7.15057 0.86524 7.06328 0.86524C6.97599 0.86524 6.88956 0.882432 6.80892 0.915835C6.72828 0.949239 6.655 0.998199 6.59328 1.05992L3.99995 3.64659L1.41328 1.05992C1.15328 0.806587 0.726616 0.806587 0.473283 1.05992Z" fill="#B8B8B8"/>
</svg>
