<svg width="115" height="33" viewBox="0 0 115 33" fill="none" xmlns="http://www.w3.org/2000/svg">
<g clip-path="url(#clip0)">
<path fill-rule="evenodd" clip-rule="evenodd" d="M100.668 14.1505L106.425 0.243308H109.256L115.013 14.1505H100.668ZM107.751 4.31675L105.242 11.2091H110.584L107.751 4.31675ZM94.1186 14.3862C93.3033 14.4611 92.4817 14.3536 91.7125 14.0708C90.9434 13.788 90.2458 13.337 89.6696 12.7504C89.0935 12.1639 88.6531 11.4561 88.38 10.6778C88.1069 9.8995 88.0079 9.06983 88.09 8.24839V0.19635H91.252V7.56933C91.252 10.1245 92.2072 11.4005 94.1177 11.3974C94.4854 11.4285 94.8549 11.3625 95.1894 11.2054C95.5239 11.0483 95.812 10.8058 96.025 10.502C96.4719 9.65765 96.674 8.70363 96.6084 7.74888V4.2035H99.7704V8.38973C99.8575 9.17308 99.7736 9.96607 99.5247 10.7133C99.2757 11.4605 98.8676 12.1441 98.3291 12.7155C97.7906 13.2868 97.1347 13.7324 96.4073 14.0211C95.68 14.3098 94.8988 14.4341 94.1186 14.3862ZM85.1365 14.2734C84.8663 14.283 84.5972 14.2349 84.3467 14.1325C84.0962 14.0302 83.8699 13.8756 83.6826 13.679C83.4984 13.4905 83.3537 13.2665 83.2573 13.0202C83.1609 12.774 83.1148 12.511 83.1216 12.2463C83.1228 12.0012 83.1744 11.7586 83.2732 11.5346C83.3721 11.3106 83.5159 11.1098 83.6957 10.9448C83.8859 10.7562 84.1118 10.6081 84.36 10.5093C84.6081 10.4105 84.8735 10.3631 85.1402 10.3698C85.387 10.3682 85.6315 10.4186 85.858 10.5176C86.0845 10.6166 86.2881 10.7621 86.4557 10.9448C86.6281 11.114 86.7652 11.3166 86.8588 11.5401C86.9524 11.7636 87.0007 12.0037 87.0007 12.2463C87.0116 12.771 86.8237 13.2799 86.4753 13.6698C86.3103 13.8639 86.1045 14.019 85.873 14.1233C85.6415 14.2276 85.39 14.2788 85.1365 14.2734ZM76.7471 14.3862C75.7546 14.443 74.7609 14.3006 73.8234 13.9672C72.886 13.6338 72.0235 13.1164 71.286 12.4443C70.6199 11.7509 70.1019 10.9269 69.7642 10.0236C69.4265 9.12029 69.2762 8.15654 69.3226 7.19228C69.2638 5.29373 69.9541 3.44924 71.242 2.06319C71.8998 1.37468 72.695 0.834488 73.5749 0.478563C74.4549 0.122637 75.3996 -0.0408741 76.3469 -0.0016136C77.9782 -0.0603112 79.5793 0.452827 80.8777 1.45042L79.5529 4.01474C79.2078 3.68047 78.7923 3.42928 78.3374 3.27951C77.8218 3.08343 77.2757 2.98143 76.7246 2.97796C76.1871 2.95232 75.65 3.03592 75.1452 3.22381C74.6404 3.4117 74.1782 3.69973 73.7861 4.07137C73.0728 4.94435 72.6844 6.04134 72.6882 7.17249C72.6919 8.30363 73.0875 9.39809 73.8066 10.2662C74.1984 10.6528 74.6652 10.9534 75.1775 11.1497C75.6899 11.346 76.237 11.4337 76.7844 11.4071C77.2081 11.3963 77.628 11.3232 78.0308 11.1902C78.3698 11.0956 78.6861 10.9317 78.9601 10.7091V9.20046H76.0122V6.22134H81.9286V12.4254C81.2503 13.0697 80.4399 13.5555 79.5547 13.8489C78.6579 14.1946 77.7072 14.3764 76.7471 14.3862ZM70.7764 25.5499C71.223 25.5489 71.6621 25.6658 72.0498 25.8892V27.1336C71.8821 26.9492 71.6786 26.8017 71.4521 26.6995C71.2255 26.5973 70.9806 26.5429 70.7325 26.5397C70.5412 26.5345 70.351 26.5698 70.1739 26.6429C69.9969 26.7159 69.8368 26.8253 69.704 26.9642C69.5679 27.1081 69.4623 27.2782 69.3937 27.4646C69.325 27.6511 69.2948 27.8498 69.3048 28.0484C69.295 28.2574 69.3273 28.4665 69.3997 28.6626C69.4722 28.8586 69.5834 29.0377 69.7265 29.1892C69.8579 29.3146 70.0127 29.4122 70.1818 29.477C70.3509 29.5417 70.5311 29.5721 70.7119 29.5663C70.9657 29.5725 71.2176 29.522 71.4494 29.4176C71.6812 29.3132 71.887 29.1579 72.0517 28.9632V30.1887C71.6232 30.4438 71.1317 30.5714 70.6343 30.5566C70.3067 30.5746 69.9791 30.5213 69.6735 30.401C69.3679 30.2806 69.0914 30.0958 68.8626 29.8586C68.6407 29.6224 68.4676 29.3439 68.3534 29.0396C68.2393 28.7353 68.1864 28.4113 68.1978 28.0862C68.1864 27.7473 68.2433 27.4096 68.3651 27.0936C68.4869 26.7775 68.6711 26.4895 68.9065 26.2474C69.1551 26.0095 69.4491 25.825 69.7705 25.7051C70.0919 25.5851 70.4341 25.5325 70.7764 25.5499ZM59.1829 5.79687V14.1882H56.2191V0.19635H58.7538L65.3265 8.63511V0.19635H68.2951V14.1882H65.7613L59.1829 5.79687ZM57.571 25.5499C57.8498 25.5413 58.1272 25.5923 58.3851 25.6996C58.6429 25.8068 58.8754 25.9676 59.067 26.1719C59.538 26.7288 59.773 27.4505 59.7214 28.1805V28.3122H56.378C56.3897 28.6685 56.5319 29.008 56.7773 29.2647C56.8874 29.3703 57.0181 29.4517 57.161 29.5037C57.3039 29.5556 57.4559 29.5767 57.6075 29.5663C57.8743 29.5746 58.1359 29.4915 58.3499 29.3306C58.5278 29.1899 58.6746 29.0135 58.7809 28.8122L59.6897 29.3306C59.5063 29.6834 59.2354 29.9822 58.9033 30.1979C58.4915 30.4535 58.013 30.5787 57.5299 30.5566C57.2408 30.57 56.952 30.5232 56.6815 30.4194C56.411 30.3156 56.1645 30.1568 55.9573 29.953C55.7267 29.7142 55.5469 29.4305 55.4288 29.1193C55.3106 28.808 55.2566 28.4758 55.2701 28.1428C55.2584 27.7854 55.3181 27.4291 55.4456 27.0954C55.5731 26.7617 55.7659 26.4574 56.0125 26.2004C56.2141 25.9884 56.4573 25.8212 56.7266 25.7092C56.9959 25.5972 57.2854 25.5429 57.5766 25.5499H57.571ZM56.4491 27.4071H58.6088C58.5705 27.1624 58.4536 26.9375 58.276 26.7663C58.0761 26.5855 57.8141 26.4905 57.5458 26.502C57.4045 26.4956 57.2634 26.5191 57.1317 26.5711C57 26.623 56.8805 26.7026 56.781 26.804C56.6149 26.9672 56.5022 27.1774 56.4584 27.4071H56.4491ZM51.8519 0.19635H55.0242V14.1882H51.8519V0.19635ZM51.9454 25.6821H53.0309V30.0285C53.0435 30.536 52.9913 31.0431 52.8757 31.5372C52.7779 31.9142 52.565 32.2507 52.267 32.4989C51.8236 32.8428 51.275 33.0194 50.716 32.9984C50.4349 33.0128 50.154 32.9683 49.8908 32.8677C49.6277 32.7671 49.3882 32.6124 49.1873 32.4137C48.801 32.0152 48.5592 31.497 48.501 30.9428H49.5528C49.5934 31.2195 49.713 31.4783 49.8969 31.6877C50.0064 31.7986 50.1381 31.8847 50.2832 31.94C50.4284 31.9953 50.5836 32.0188 50.7384 32.0086C50.894 32.0174 51.0497 31.9944 51.1962 31.9409C51.3427 31.8875 51.4771 31.8045 51.591 31.6974C51.8613 31.3611 51.9887 30.9306 51.9454 30.4999V29.8872C51.7803 30.1058 51.5651 30.2807 51.3183 30.3973C51.0714 30.5138 50.8003 30.5686 50.528 30.5566C50.2407 30.5677 49.9544 30.5162 49.6887 30.4056C49.4229 30.2949 49.184 30.1275 48.9881 29.9152C48.7546 29.6646 48.5727 29.3695 48.453 29.0474C48.3332 28.7254 48.2781 28.3829 48.2907 28.0392C48.2761 27.7032 48.3296 27.3675 48.4477 27.0531C48.5659 26.7386 48.7462 26.4516 48.9779 26.2097C49.182 25.9951 49.4281 25.826 49.7006 25.7124C49.9731 25.5988 50.266 25.5435 50.5607 25.5499C50.8257 25.5427 51.0888 25.5977 51.3291 25.7106C51.5694 25.8235 51.7804 25.9912 51.9454 26.2004V25.6821ZM51.5714 26.879C51.4566 26.765 51.3197 26.6764 51.1693 26.618C51.0189 26.5596 50.8582 26.5328 50.6972 26.5397C50.5463 26.5359 50.3962 26.5621 50.2554 26.6171C50.1147 26.6721 49.9861 26.7552 49.8773 26.8606C49.7171 27.0159 49.5918 27.2035 49.5097 27.4117C49.4276 27.6199 49.3907 27.8435 49.4014 28.0673C49.3883 28.2877 49.4234 28.5084 49.5042 28.7137C49.5849 28.9189 49.7095 29.1036 49.8689 29.2551C50.0977 29.4598 50.3942 29.5709 50.7 29.5663C50.8691 29.571 51.0373 29.5401 51.1936 29.4751C51.35 29.4102 51.4912 29.3127 51.6079 29.1892C51.8781 28.8642 52.0234 28.4523 52.0173 28.0282C52.0111 27.604 51.8538 27.1959 51.5742 26.879H51.5714ZM42.7828 14.1882C42.2714 14.1882 41.7011 14.1788 41.0718 14.1693C40.4426 14.1599 39.7273 14.1505 38.928 14.1505H38.5942V0.262184H38.8691C39.4587 0.262184 40.1132 0.252958 40.8325 0.234101C41.1073 0.234101 41.4122 0.234322 41.7469 0.224893C42.0816 0.215465 42.3396 0.215446 42.5238 0.206018C42.708 0.196589 42.8445 0.19635 42.9361 0.19635C45.5197 0.19635 47.4535 0.846756 48.7375 2.1479C49.3766 2.7949 49.8773 3.56737 50.2089 4.41711C50.5405 5.26685 50.6959 6.17605 50.6654 7.0887C50.6911 8.03692 50.5207 8.98015 50.1651 9.85834C49.8095 10.7365 49.2766 11.5306 48.6001 12.1897C47.0016 13.6048 44.9122 14.3232 42.7893 14.1882H42.7828ZM46.1262 4.2035C45.2102 3.47778 44.0638 3.11269 42.9006 3.17593C42.513 3.16929 42.1254 3.18824 41.7403 3.23255V11.1713C42.1077 11.1996 42.4883 11.2091 42.881 11.2091C44.0666 11.2809 45.2346 10.8931 46.1459 10.1249C46.5464 9.73339 46.859 9.25968 47.0626 8.73594C47.2661 8.21219 47.3558 7.65041 47.3258 7.0887C47.3555 6.5482 47.2637 6.00784 47.0571 5.50821C46.8505 5.00858 46.5345 4.56256 46.1327 4.2035H46.1262ZM28.2881 5.80654V14.1505H25.3196V0.243308H27.8618L34.4308 8.62544V0.243308H37.3984V14.1505H34.8665L28.2881 5.80654ZM15.6138 0.19635H18.4243L24.1453 14.1882H9.89936L15.6138 0.19635ZM16.9302 4.29787L14.101 11.2372H19.6052L16.9302 4.29787ZM8.57544 24.428C8.48343 24.4306 8.39186 24.4141 8.30621 24.3801C8.22056 24.3461 8.14259 24.2952 8.07709 24.23C7.94912 24.0919 7.87799 23.9099 7.87799 23.7208C7.87799 23.5318 7.94912 23.3498 8.07709 23.2117C8.21232 23.0843 8.39044 23.0132 8.57544 23.0132C8.76045 23.0132 8.93857 23.0843 9.0738 23.2117C9.20238 23.3495 9.27398 23.5316 9.27398 23.7208C9.27398 23.9101 9.20238 24.0922 9.0738 24.23C9.00907 24.2944 8.93222 24.3452 8.84776 24.3792C8.7633 24.4132 8.67293 24.4297 8.58201 24.428H8.57544ZM0 0.19635H3.13209V11.1902H8.71194V14.1882H0V0.19635ZM3.07788 23.0607C3.51997 23.1652 3.93452 23.3647 4.29331 23.6453C4.74389 23.9848 5.10372 24.4319 5.34046 24.9464C5.59122 25.4862 5.71902 26.0758 5.71447 26.6719C5.74019 27.4922 5.48585 28.2964 4.99402 28.9503C4.50219 29.6042 3.80267 30.0681 3.01242 30.2642C2.5256 30.3742 2.02746 30.4245 1.52867 30.4148H0V22.9096H1.55018C2.06346 22.901 2.57601 22.9518 3.07788 23.0607ZM1.12847 29.3306H1.61655C2.31077 29.3769 3.00078 29.1913 3.57994 28.8025C3.90691 28.5566 4.16958 28.2341 4.34519 27.8629C4.5208 27.4916 4.60406 27.0829 4.58783 26.6719C4.59559 26.2312 4.49947 25.7948 4.30735 25.3989C4.14434 25.0466 3.8993 24.7396 3.59307 24.5035C3.00435 24.1318 2.31557 23.9538 1.62214 23.9943H1.13412V29.3306H1.12847ZM9.12521 30.4148H8.04063V25.6821H9.12613V30.4148H9.12521ZM13.599 30.5566C13.3118 30.5677 13.0257 30.5162 12.76 30.4056C12.4944 30.2949 12.2557 30.1275 12.06 29.9152C11.8262 29.6648 11.644 29.37 11.5241 29.0479C11.4042 28.7258 11.349 28.383 11.3616 28.0392C11.3471 27.7032 11.4005 27.3675 11.5186 27.0531C11.6368 26.7386 11.8172 26.4516 12.0488 26.2097C12.2532 25.9951 12.4995 25.826 12.7721 25.7124C13.0447 25.5988 13.3377 25.5434 13.6326 25.5499C13.8975 25.5427 14.1605 25.5977 14.4006 25.7106C14.6408 25.8235 14.8516 25.9912 15.0164 26.2004V25.6821H16.1019V30.0285C16.1145 30.536 16.0623 31.0431 15.9467 31.5372C15.8493 31.9144 15.6363 32.251 15.338 32.4989C14.8948 32.8431 14.3459 33.0197 13.7869 32.9984C13.506 33.0129 13.2252 32.9683 12.9622 32.8677C12.6993 32.767 12.4599 32.6125 12.2592 32.4137C11.8723 32.0155 11.6302 31.4972 11.572 30.9428H12.622C12.6622 31.2194 12.7815 31.4783 12.9651 31.6877C13.0745 31.7986 13.2063 31.8847 13.3514 31.94C13.4966 31.9953 13.6518 32.0188 13.8066 32.0086C13.9622 32.0174 14.1179 31.9944 14.2644 31.9409C14.4109 31.8875 14.5453 31.8045 14.6592 31.6974C14.9295 31.3611 15.0568 30.9306 15.0136 30.4999V29.8872C14.849 30.1058 14.6344 30.2807 14.388 30.3973C14.1416 30.5139 13.8709 30.5686 13.599 30.5566ZM15.0828 28.0765C15.0956 27.8568 15.0628 27.6372 14.9865 27.431C14.9102 27.2248 14.7921 27.0365 14.6396 26.879C14.5249 26.7649 14.388 26.676 14.2376 26.6175C14.0872 26.5591 13.9265 26.5326 13.7654 26.5397C13.6145 26.5359 13.4643 26.5621 13.3236 26.6171C13.1828 26.6721 13.0543 26.7552 12.9455 26.8606C12.7855 27.016 12.6603 27.204 12.5782 27.4122C12.4961 27.6203 12.4591 27.8435 12.4695 28.0673C12.4565 28.2877 12.4916 28.5084 12.5724 28.7137C12.6531 28.9189 12.7776 29.1036 12.937 29.2551C13.1659 29.4597 13.4624 29.5707 13.7682 29.5663C13.9373 29.5711 14.1055 29.5401 14.2619 29.4751C14.4183 29.4102 14.5594 29.3127 14.6761 29.1892C14.9494 28.8855 15.0952 28.4865 15.0828 28.0765ZM19.1255 23.0137C19.2175 23.0111 19.3092 23.0271 19.3948 23.0611C19.4805 23.0951 19.5584 23.1464 19.6239 23.2117C19.7518 23.3498 19.823 23.5318 19.823 23.7208C19.823 23.9099 19.7518 24.0919 19.6239 24.23C19.4886 24.3573 19.3105 24.428 19.1255 24.428C18.9405 24.428 18.7624 24.3573 18.6272 24.23C18.4992 24.0919 18.4281 23.9099 18.4281 23.7208C18.4281 23.5318 18.4992 23.3498 18.6272 23.2117C18.6927 23.1464 18.7706 23.0951 18.8563 23.0611C18.9419 23.0271 19.0335 23.0111 19.1255 23.0137ZM19.6678 30.4148H18.5832V25.6821H19.6678V30.4148ZM22.1819 23.9469H23.2674V25.6821H24.0976V26.6907H23.2674V30.4148H22.1819V26.6907H21.7284V25.6821H22.1819V23.9469ZM27.9628 25.5499C28.231 25.5405 28.4974 25.5973 28.7388 25.7157C28.9802 25.834 29.1891 26.01 29.3474 26.2285V25.6821H30.4329V30.4148H29.3474V29.9152C29.1792 30.123 28.9658 30.2888 28.7237 30.4C28.4816 30.5112 28.2174 30.5649 27.9515 30.5566C27.6401 30.5688 27.33 30.5086 27.0451 30.3812C26.7601 30.2537 26.5079 30.0619 26.3079 29.8209C25.8974 29.3206 25.679 28.6884 25.6927 28.0392C25.6771 27.7102 25.727 27.3812 25.8394 27.0719C25.9518 26.7627 26.1244 26.4791 26.3471 26.2382C26.5544 26.0167 26.805 25.8411 27.0832 25.7226C27.3613 25.6041 27.6609 25.5454 27.9628 25.5499ZM27.1596 29.1326C27.2716 29.2729 27.4143 29.3851 27.5766 29.4604C27.7388 29.5357 27.9161 29.5718 28.0946 29.5663C28.2683 29.5689 28.4406 29.536 28.6013 29.4696C28.762 29.4032 28.9077 29.3048 29.0296 29.18C29.1623 29.0307 29.2643 28.856 29.3298 28.6667C29.3953 28.4773 29.4229 28.2767 29.411 28.0765C29.4244 27.8719 29.3976 27.6666 29.3322 27.4725C29.2667 27.2783 29.1639 27.0993 29.0296 26.9453C28.91 26.8162 28.7651 26.7136 28.6042 26.6438C28.4433 26.574 28.2698 26.5385 28.0946 26.5397C27.9154 26.536 27.7378 26.5743 27.5756 26.6512C27.4135 26.728 27.2711 26.8416 27.1596 26.9831C26.9267 27.2922 26.8006 27.6694 26.8006 28.0576C26.8006 28.4458 26.9267 28.8235 27.1596 29.1326ZM33.9989 30.4148H32.9106V22.2122H33.9961V30.4148H33.9989ZM46.7012 30.4148H45.4858L44.7107 28.6045H41.5543L40.7465 30.4148H39.531L43.2073 22.476L46.7012 30.4148ZM42.0171 27.5204H44.2544L43.1577 24.9841L42.0171 27.5204ZM63.0368 26.1157C63.1928 25.9331 63.3869 25.7872 63.6054 25.6894C63.8238 25.5916 64.061 25.5441 64.3 25.5499C64.5647 25.5322 64.8295 25.5825 65.0695 25.6963C65.3096 25.8101 65.5172 25.9836 65.6725 26.2004C65.8958 26.5986 65.9961 27.0551 65.9605 27.5111V30.4148H64.8759V27.7846C64.8815 27.5501 64.859 27.3156 64.8086 27.0867C64.7852 26.9397 64.7106 26.8061 64.5982 26.7096C64.5223 26.6446 64.4338 26.5965 64.3383 26.5683C64.2344 26.5469 64.1283 26.5371 64.0223 26.5397C63.896 26.5369 63.77 26.5531 63.6483 26.5872C63.5353 26.6209 63.4325 26.6824 63.3491 26.7663C63.2221 26.8977 63.1388 27.0656 63.1107 27.2469C63.0529 27.5418 63.0269 27.8423 63.0331 28.1428V30.4148H61.9476V25.6821H63.0331V26.1157H63.0368ZM74.8874 25.6821L76.216 28.4443L77.567 25.6821H78.7825L75.0725 32.9892H73.8618L75.5784 29.6703L73.585 25.6821H74.894H74.8874Z" fill="white"/>
</g>
<defs>
<clipPath id="clip0">
<rect width="115" height="33" fill="white"/>
</clipPath>
</defs>
</svg>
