<svg width="24" height="28" viewBox="0 0 24 28" fill="none" xmlns="http://www.w3.org/2000/svg">
<path d="M20.75 16.5V21.5H18.25V16.5H20.75ZM5.75 16.5V21.5H4.5C3.8125 21.5 3.25 20.9375 3.25 20.25V16.5H5.75ZM12 0.25C9.01631 0.25 6.15483 1.43526 4.04505 3.54505C1.93526 5.65483 0.75 8.51631 0.75 11.5V20.25C0.75 22.325 2.425 24 4.5 24H8.25V14H3.25V11.5C3.25 6.6625 7.1625 2.75 12 2.75C16.8375 2.75 20.75 6.6625 20.75 11.5V14H15.75V24H20.75V25.25H12V27.75H19.5C21.575 27.75 23.25 26.075 23.25 24V11.5C23.25 8.51631 22.0647 5.65483 19.955 3.54505C17.8452 1.43526 14.9837 0.25 12 0.25V0.25Z" fill="#151515"/>
</svg>
