<svg width="24" height="24" viewBox="0 0 24 24" fill="none" xmlns="http://www.w3.org/2000/svg">
<path d="M5.85025 20.5504C5.7677 20.5299 5.68471 20.5105 5.60248 20.4882C5.14196 20.3615 4.73957 20.1327 4.40712 19.7887C3.83358 19.195 3.52494 18.4857 3.49827 17.6568C3.48861 17.3454 3.52456 17.0392 3.59761 16.7366C3.68256 16.3814 3.81532 16.0459 3.9891 15.7254C4.26659 15.2139 4.62752 14.7691 5.0544 14.3756C5.37613 14.0791 5.72669 13.8209 6.10233 13.597C6.45387 13.3871 6.78218 13.1448 7.096 12.8823C7.49098 12.5513 7.85899 12.1915 8.22381 11.8283C8.54632 11.5071 8.86486 11.1829 9.20109 10.8768C9.45406 10.6457 9.71656 10.4265 10 10.2339C10.3546 9.99343 10.7325 9.80344 11.1547 9.71148C11.4715 9.64235 11.7897 9.63228 12.1102 9.68189C12.4727 9.73724 12.823 9.83591 13.1589 9.98393C13.6729 10.211 14.0922 10.5551 14.4258 11.0072C14.6538 11.3176 14.8336 11.655 14.9946 12.0033C15.1655 12.3727 15.3156 12.7507 15.473 13.126C15.6506 13.5487 15.837 13.9668 16.0568 14.3698C16.2756 14.7714 16.5282 15.1509 16.8142 15.5077C17.1602 15.9393 17.453 16.4035 17.6832 16.9073C17.8791 17.3392 18.0219 17.7869 18.0939 18.2562C18.15 18.6218 18.1613 18.9875 18.1156 19.3554C18.0468 19.9141 17.8581 20.4267 17.5198 20.8805C17.2066 21.3012 16.8056 21.6125 16.3321 21.8326C15.9841 21.9942 15.6208 22.0997 15.2365 22.1262C15.1004 22.136 14.9639 22.1362 14.8279 22.1256C14.8089 22.1241 14.7903 22.1244 14.7719 22.124C14.7526 22.1309 14.7346 22.1201 14.7158 22.1191C14.7002 22.1185 14.6853 22.1088 14.6691 22.1159C14.5549 22.0958 14.4402 22.0755 14.326 22.0554C14.3142 22.0431 14.2976 22.0473 14.2834 22.0429C14.27 22.0405 14.2574 22.0383 14.2442 22.036C14.2334 22.0341 14.2217 22.032 14.2111 22.0301C13.9201 21.9691 13.6468 21.8578 13.3752 21.7421C12.9152 21.5453 12.4709 21.3148 12.0151 21.1087C11.6459 20.9422 11.2702 20.7936 10.8815 20.6782C10.6122 20.5981 10.3372 20.546 10.0607 20.507C9.83948 20.4756 9.61524 20.4711 9.39193 20.4734C8.95087 20.4787 8.51222 20.5201 8.07347 20.5608C7.60924 20.6047 7.14513 20.6478 6.6787 20.6422C6.48903 20.6395 6.29987 20.6326 6.11279 20.5977C6.07442 20.5904 6.03518 20.5895 5.99644 20.5817C5.94742 20.5702 5.89707 20.5703 5.85025 20.5504ZM17.2447 3.36018C17.8486 3.54332 18.2645 3.94088 18.5371 4.5003C18.724 4.8839 18.8119 5.29267 18.8362 5.71737C18.8565 6.08303 18.8247 6.44499 18.7494 6.80355C18.6109 7.46235 18.3448 8.06436 17.9526 8.61083C17.681 8.98953 17.3587 9.3174 16.975 9.5816C16.6333 9.8163 16.2636 9.98678 15.854 10.0614C15.5663 10.1138 15.2799 10.1142 14.9951 10.0464C14.502 9.9297 14.1141 9.65657 13.8198 9.24711C13.569 8.8977 13.4255 8.50342 13.3524 8.08203C13.3014 7.78735 13.2893 7.49076 13.3084 7.19297C13.3211 6.98882 13.3475 6.78684 13.3892 6.58757C13.4874 6.1171 13.6533 5.67144 13.8855 5.25127C14.1322 4.8039 14.4403 4.40567 14.8245 4.06872C15.1477 3.78529 15.5066 3.56076 15.9145 3.42011C16.2143 3.31657 16.5224 3.26972 16.8399 3.28928C17.014 3.30166 17.0828 3.31512 17.2447 3.36018ZM2.61173 8.24048C2.6547 8.05333 2.72124 7.8739 2.8029 7.70024C2.96116 7.36273 3.1749 7.06737 3.46795 6.83385C3.79543 6.57332 4.16817 6.43312 4.58666 6.42383C4.92645 6.41661 5.24546 6.50167 5.54653 6.65617C5.89261 6.83408 6.18232 7.08394 6.42586 7.38565C6.80445 7.85305 7.04062 8.38771 7.16609 8.97402C7.2316 9.281 7.25964 9.59185 7.25013 9.9056C7.2456 10.0579 7.22962 10.2091 7.20615 10.3597C7.16121 10.6455 7.08324 10.9208 6.96418 11.184C6.8054 11.5352 6.5882 11.8421 6.28557 12.0842C5.9382 12.3619 5.54136 12.5029 5.09657 12.497C4.77019 12.4928 4.46437 12.403 4.17651 12.2503C3.78958 12.0442 3.47825 11.7527 3.22075 11.4009C2.96943 11.0586 2.78849 10.6805 2.66714 10.2742C2.54821 9.87568 2.48965 9.46732 2.50025 9.05045C2.50232 8.97678 2.50623 8.90343 2.50918 8.83016C2.50736 8.79603 2.51626 8.76308 2.51417 8.72915C2.51289 8.71488 2.51724 8.70231 2.51903 8.68811C2.51955 8.67035 2.53064 8.65326 2.5231 8.63407C2.53857 8.54634 2.554 8.45884 2.56951 8.37087C2.59009 8.34974 2.58676 8.32154 2.59312 8.29624C2.59788 8.27732 2.59662 8.25615 2.61173 8.24048ZM7.39826 4.80254C7.49246 4.28043 7.64969 3.82228 7.90393 3.39957C8.09584 3.0799 8.33163 2.79819 8.63063 2.57263C8.95276 2.329 9.31123 2.17677 9.71652 2.14682C10.1219 2.11641 10.4982 2.2118 10.849 2.41388C11.158 2.59215 11.4126 2.83225 11.6263 3.11632C11.9675 3.56928 12.1788 4.08075 12.2963 4.63304C12.3709 4.98423 12.4023 5.33923 12.3927 5.69772C12.3873 5.90101 12.3691 6.10373 12.3378 6.30555C12.2975 6.55937 12.2372 6.80868 12.1515 7.05115C11.9729 7.5579 11.7105 8.01299 11.3198 8.38735C11.0768 8.61946 10.8001 8.79802 10.4802 8.90538C10.1227 9.02517 9.76035 9.0377 9.39587 8.94392C9.06633 8.85938 8.77757 8.69563 8.52037 8.47412C8.1848 8.18546 7.93427 7.83181 7.744 7.43404C7.51844 6.96172 7.3944 6.46159 7.35198 5.94015C7.32868 5.6549 7.33199 5.36957 7.36085 5.08471C7.37117 4.97774 7.38276 4.87027 7.39826 4.80254ZM22.0811 11.9875C22.0776 12.0076 22.074 12.0279 22.0704 12.0482C21.9586 12.5479 21.7405 12.9984 21.4436 13.4125C21.2103 13.7367 20.9353 14.0213 20.615 14.26C20.2039 14.567 19.7515 14.7831 19.2434 14.8711C18.939 14.9238 18.6354 14.9227 18.3338 14.8521C17.8886 14.7474 17.5249 14.5147 17.2489 14.149C17.0212 13.8467 16.8965 13.5024 16.8453 13.1306C16.7989 12.7972 16.815 12.4649 16.8837 12.1356C17.0344 11.4116 17.3806 10.7904 17.885 10.2549C18.0554 10.0736 18.2428 9.9114 18.446 9.76868C18.8638 9.47646 19.3181 9.27518 19.8263 9.2053C20.1152 9.16625 20.4017 9.17559 20.6842 9.24849C21.1157 9.35956 21.4679 9.59283 21.7345 9.95194C21.9751 10.276 22.0977 10.6454 22.141 11.0434C22.1649 11.2633 22.1626 11.4836 22.1313 11.703C22.1277 11.7234 22.1241 11.7439 22.1205 11.7642C22.1051 11.8382 22.0922 11.9126 22.0811 11.9875Z" fill="#151515"/>
</svg>
