<svg width="26" height="24" viewBox="0 0 26 24" fill="none" xmlns="http://www.w3.org/2000/svg">
<path d="M4.32525 0.75001C3.78775 0.75001 3.27525 0.92501 2.80025 1.27501C2.32525 1.62501 2.05025 2.07501 1.92525 2.62501L0.637754 8.13751C0.325254 9.50001 0.575254 10.6875 1.40025 11.7125L1.75025 12.0625V20.75C1.75025 21.375 2.00025 22 2.51275 22.4875C3.02525 22.975 3.62525 23.25 4.25025 23.25H21.7503C22.3753 23.25 23.0003 23 23.4878 22.4875C23.9753 21.975 24.2503 21.375 24.2503 20.75V12.0625L24.6003 11.7125C25.4253 10.6875 25.6753 9.50001 25.3628 8.13751L24.0753 2.62501C23.9128 2.07501 23.6253 1.62501 23.1628 1.27501C22.7422 0.933854 22.2168 0.7484 21.6753 0.75001H4.32525ZM21.6128 3.21251L22.9628 8.72501C23.0753 9.26251 22.9628 9.75001 22.6128 10.1875C22.3003 10.575 21.9128 10.75 21.4378 10.75C21.0503 10.75 20.7128 10.625 20.4378 10.325C20.1628 10.0375 20.0128 9.70001 19.9753 9.30001L19.2128 3.25001L21.6128 3.21251ZM4.32525 3.25001H6.78775L6.02525 9.30001C5.87525 10.2875 5.38775 10.75 4.56275 10.75C4.05025 10.75 3.66275 10.575 3.38775 10.1875C3.03775 9.75001 2.92525 9.26251 3.03775 8.72501L4.32525 3.25001ZM9.31275 3.25001H11.7503V9.12501C11.7503 9.56251 11.6128 9.93751 11.3003 10.275C10.9878 10.6 10.6003 10.75 10.1253 10.75C9.70025 10.75 9.33775 10.6 9.05025 10.2375C8.76275 9.87501 8.62525 9.50001 8.62525 9.07501V8.87501L9.31275 3.25001ZM14.2503 3.25001H16.6878L17.3753 8.87501C17.4753 9.40001 17.3753 9.83751 17.0128 10.2125C16.6878 10.5875 16.2628 10.75 15.7503 10.75C15.3628 10.75 15.0128 10.6 14.7003 10.275C14.5534 10.1223 14.438 9.94212 14.3608 9.74479C14.2836 9.54747 14.246 9.33686 14.2503 9.12501V3.25001ZM7.31275 12.0625C8.10025 12.8375 9.07525 13.25 10.2503 13.25C11.3003 13.25 12.2253 12.8375 13.0003 12.0625C13.8628 12.8375 14.8128 13.25 15.8753 13.25C16.9628 13.25 17.9003 12.8375 18.6878 12.0625C19.3878 12.8375 20.3253 13.25 21.5003 13.25H21.7878V20.75H4.25025V13.25H4.56275C5.70025 13.25 6.61275 12.8375 7.31275 12.0625Z" fill="#151515"/>
</svg>
