<svg width="29" height="20" viewBox="0 0 29 20" fill="none" xmlns="http://www.w3.org/2000/svg">
<path d="M0.9375 4.375H13.125L14.0625 6.25H1.875L0.9375 4.375ZM2.1875 8.125H14.375L15.3125 10H3.125L2.1875 8.125ZM22.5 18.125C23.5375 18.125 24.375 17.2875 24.375 16.25C24.375 15.2125 23.5375 14.375 22.5 14.375C21.4625 14.375 20.625 15.2125 20.625 16.25C20.625 17.2875 21.4625 18.125 22.5 18.125ZM24.375 6.875H21.25V10H26.825L24.375 6.875ZM10 18.125C11.0375 18.125 11.875 17.2875 11.875 16.25C11.875 15.2125 11.0375 14.375 10 14.375C8.9625 14.375 8.125 15.2125 8.125 16.25C8.125 17.2875 8.9625 18.125 10 18.125ZM25 5L28.75 10V16.25H26.25C26.25 18.325 24.575 20 22.5 20C20.425 20 18.75 18.325 18.75 16.25H13.75C13.75 18.325 12.0625 20 10 20C7.925 20 6.25 18.325 6.25 16.25H3.75V11.875H6.25V13.75H7.2C7.8875 12.9875 8.8875 12.5 10 12.5C11.1125 12.5 12.1125 12.9875 12.8 13.75H18.75V2.5H3.75C3.75 1.1125 4.8625 0 6.25 0H21.25V5H25Z" fill="#151515"/>
</svg>
