<svg width="25" height="24" viewBox="0 0 25 24" fill="none" xmlns="http://www.w3.org/2000/svg">
<path d="M3.25 0.75C2.58696 0.75 1.95107 1.01339 1.48223 1.48223C1.01339 1.95107 0.75 2.58696 0.75 3.25V20.75C0.75 21.413 1.01339 22.0489 1.48223 22.5178C1.95107 22.9866 2.58696 23.25 3.25 23.25H20.75C21.413 23.25 22.0489 22.9866 22.5178 22.5178C22.9866 22.0489 23.25 21.413 23.25 20.75V17.9C23.6278 17.6819 23.942 17.3686 24.1613 16.9915C24.3806 16.6143 24.4974 16.1863 24.5 15.75V8.25C24.4974 7.81372 24.3806 7.38572 24.1613 7.00854C23.942 6.63136 23.6278 6.31814 23.25 6.1V3.25C23.25 2.58696 22.9866 1.95107 22.5178 1.48223C22.0489 1.01339 21.413 0.75 20.75 0.75H3.25ZM3.25 3.25H20.75V5.75H13.25C12.587 5.75 11.9511 6.01339 11.4822 6.48223C11.0134 6.95107 10.75 7.58696 10.75 8.25V15.75C10.75 16.413 11.0134 17.0489 11.4822 17.5178C11.9511 17.9866 12.587 18.25 13.25 18.25H20.75V20.75H3.25V3.25ZM13.25 8.25H22V15.75H13.25V8.25ZM17 10.125C16.5027 10.125 16.0258 10.3225 15.6742 10.6742C15.3225 11.0258 15.125 11.5027 15.125 12C15.125 12.4973 15.3225 12.9742 15.6742 13.3258C16.0258 13.6775 16.5027 13.875 17 13.875C17.4973 13.875 17.9742 13.6775 18.3258 13.3258C18.6775 12.9742 18.875 12.4973 18.875 12C18.875 11.5027 18.6775 11.0258 18.3258 10.6742C17.9742 10.3225 17.4973 10.125 17 10.125Z" fill="#151515"/>
</svg>
