<svg width="23" height="16" viewBox="0 0 23 16" fill="none" xmlns="http://www.w3.org/2000/svg">
<path d="M18.6341 4.91449C19.3149 4.91449 19.9955 4.91449 20.6795 4.91449C20.6833 5.59881 20.6898 6.28655 20.6936 6.97056C21.3776 6.97741 22.0653 6.98084 22.7496 6.98426C22.7496 7.66858 22.7496 8.34916 22.7496 9.03348C22.0656 9.03691 21.3779 9.04033 20.6936 9.04376C20.6867 9.7315 20.6833 10.4155 20.6795 11.1033C19.9955 11.0998 19.3109 11.1033 18.6303 11.1033C18.6238 10.4155 18.6238 9.7315 18.6166 9.04718C17.9326 9.04002 17.2449 9.03691 16.5605 9.03317C16.5605 8.34885 16.5605 7.66827 16.5605 6.98395C17.2449 6.98052 17.9292 6.9771 18.6166 6.97025C18.62 6.28655 18.6269 5.59881 18.6341 4.91449Z" fill="white"/>
<path d="M0.0884071 8.00916C-0.0526287 4.29584 3.19991 0.86428 6.91697 0.819758C8.81146 0.658174 10.6546 1.39386 12.0883 2.59376C11.5002 3.24041 10.9018 3.87958 10.2626 4.47797C9.00044 3.71115 7.4808 3.12677 6.00568 3.64577C3.62644 4.32324 2.18558 7.13243 3.06604 9.45999C3.79519 11.8909 6.75196 13.225 9.06924 12.2038C10.2691 11.7742 11.0602 10.667 11.4074 9.47743C10.0322 9.45003 8.65672 9.46715 7.28154 9.42917C7.27812 8.61097 7.2747 7.79589 7.27812 6.9777C9.57143 6.97427 11.8682 6.96742 14.1649 6.98797C14.3059 8.99267 14.0102 11.1381 12.7069 12.7471C10.9223 15.0438 7.62526 15.7179 4.94309 14.8169C2.09653 13.8819 0.0264509 11.0142 0.0884071 8.00916Z" fill="white"/>
</svg>
