<svg width="24" height="24" viewBox="0 0 24 24" fill="none" xmlns="http://www.w3.org/2000/svg">
<path d="M5.05981 3.00001C4.62981 3.00001 4.21981 3.14001 3.83981 3.42001C3.45981 3.70001 3.23981 4.06001 3.13981 4.50001L2.10981 8.91001C1.85981 10 2.05981 10.95 2.71981 11.77L2.99981 12.05V19C2.99981 19.5 3.19981 20 3.60981 20.39C4.01981 20.78 4.49981 21 4.99981 21H18.9998C19.4998 21 19.9998 20.8 20.3898 20.39C20.7798 19.98 20.9998 19.5 20.9998 19V12.05L21.2798 11.77C21.9398 10.95 22.1398 10 21.8898 8.91001L20.8598 4.50001C20.7298 4.06001 20.4998 3.70001 20.1298 3.42001C19.7934 3.14708 19.373 2.99872 18.9398 3.00001H5.05981ZM18.8898 4.97001L19.9698 9.38001C20.0598 9.81001 19.9698 10.2 19.6898 10.55C19.4398 10.86 19.1298 11 18.7498 11C18.4398 11 18.1698 10.9 17.9498 10.66C17.7298 10.43 17.6098 10.16 17.5798 9.84001L16.9698 5.00001L18.8898 4.97001ZM5.05981 5.00001H7.02981L6.41981 9.84001C6.29981 10.63 5.90981 11 5.24981 11C4.83981 11 4.52981 10.86 4.30981 10.55C4.02981 10.2 3.93981 9.81001 4.02981 9.38001L5.05981 5.00001ZM9.04981 5.00001H10.9998V9.70001C10.9998 10.05 10.8898 10.35 10.6398 10.62C10.3898 10.88 10.0798 11 9.69981 11C9.35981 11 9.06981 10.88 8.83981 10.59C8.60981 10.3 8.49981 10 8.49981 9.66001V9.50001L9.04981 5.00001ZM12.9998 5.00001H14.9498L15.4998 9.50001C15.5798 9.92001 15.4998 10.27 15.2098 10.57C14.9498 10.87 14.6098 11 14.1998 11C13.8898 11 13.6098 10.88 13.3598 10.62C13.2423 10.4978 13.15 10.3537 13.0883 10.1958C13.0265 10.038 12.9964 9.86949 12.9998 9.70001V5.00001ZM7.44981 12.05C8.07981 12.67 8.85981 13 9.79981 13C10.6398 13 11.3798 12.67 11.9998 12.05C12.6898 12.67 13.4498 13 14.2998 13C15.1698 13 15.9198 12.67 16.5498 12.05C17.1098 12.67 17.8598 13 18.7998 13H19.0298V19H4.99981V13H5.24981C6.15981 13 6.88981 12.67 7.44981 12.05Z" fill="#151515"/>
</svg>
