<svg width="24" height="24" viewBox="0 0 24 24" fill="none" xmlns="http://www.w3.org/2000/svg">
<path d="M21.7108 20.29L20.2908 21.71C20.1034 21.8962 19.85 22.0008 19.5858 22.0008C19.3216 22.0008 19.0682 21.8962 18.8808 21.71L7.00079 9.85C6.6756 9.94421 6.33931 9.99465 6.00079 10C5.3641 9.99955 4.73671 9.84711 4.17078 9.55536C3.60486 9.26362 3.11676 8.84099 2.74705 8.32263C2.37735 7.80426 2.13673 7.20513 2.0452 6.57505C1.95367 5.94496 2.01387 5.30213 2.22079 4.7L4.76079 7.24L5.29079 6.71L6.71079 5.29L7.24079 4.76L4.70079 2.22C5.30293 2.01307 5.94576 1.95287 6.57584 2.04441C7.20592 2.13594 7.80505 2.37656 8.32342 2.74626C8.84179 3.11596 9.26441 3.60407 9.55616 4.16999C9.8479 4.73591 10.0003 5.3633 10.0008 6C9.99544 6.33852 9.945 6.67481 9.85079 7L21.7108 18.88C21.897 19.0674 22.0016 19.3208 22.0016 19.585C22.0016 19.8492 21.897 20.1026 21.7108 20.29ZM2.29079 18.88C2.10454 19.0674 2 19.3208 2 19.585C2 19.8492 2.10454 20.1026 2.29079 20.29L3.71079 21.71C3.89816 21.8962 4.15161 22.0008 4.41579 22.0008C4.67998 22.0008 4.93343 21.8962 5.12079 21.71L10.5908 16.25L7.76079 13.42L2.29079 18.88ZM20.0008 2L16.0008 4V6L13.8308 8.17L15.8308 10.17L18.0008 8H20.0008L22.0008 4L20.0008 2Z" fill="#0756A5"/>
</svg>
