<svg width="24" height="24" viewBox="0 0 24 24" fill="none" xmlns="http://www.w3.org/2000/svg">
<path d="M17.141 13.1667C18.016 13.1667 18.786 12.6884 19.1827 11.965L23.3593 4.39337C23.4577 4.21654 23.5081 4.01709 23.5057 3.81477C23.5033 3.61245 23.448 3.41427 23.3455 3.23985C23.243 3.06542 23.0967 2.92079 22.9211 2.82026C22.7455 2.71974 22.5467 2.66681 22.3443 2.66671H5.07768L3.98102 0.333374H0.166016V2.66671H2.49935L6.69935 11.5217L5.12435 14.3684C4.27268 15.9317 5.39268 17.8334 7.16602 17.8334H21.166V15.5H7.16602L8.44935 13.1667H17.141ZM6.18602 5.00004H20.361L17.141 10.8334H8.95102L6.18602 5.00004ZM7.16602 19C5.88268 19 4.84435 20.05 4.84435 21.3334C4.84435 22.6167 5.88268 23.6667 7.16602 23.6667C8.44935 23.6667 9.49935 22.6167 9.49935 21.3334C9.49935 20.05 8.44935 19 7.16602 19ZM18.8327 19C17.5493 19 16.511 20.05 16.511 21.3334C16.511 22.6167 17.5493 23.6667 18.8327 23.6667C20.116 23.6667 21.166 22.6167 21.166 21.3334C21.166 20.05 20.116 19 18.8327 19Z" fill="#0756A5"/>
</svg>
