<svg width="24" height="22" viewBox="0 0 24 22" fill="none" xmlns="http://www.w3.org/2000/svg">
<path d="M17.2497 0.5C15.2197 0.5 13.2713 1.445 11.9997 2.93833C10.728 1.445 8.77968 0.5 6.74967 0.5C3.15634 0.5 0.333008 3.32333 0.333008 6.91667C0.333008 11.3267 4.29967 14.92 10.308 20.38L11.9997 21.9083L13.6913 20.3683C19.6997 14.92 23.6663 11.3267 23.6663 6.91667C23.6663 3.32333 20.843 0.5 17.2497 0.5ZM12.1163 18.6417L11.9997 18.7583L11.883 18.6417C6.32967 13.6133 2.66634 10.2883 2.66634 6.91667C2.66634 4.58333 4.41634 2.83333 6.74967 2.83333C8.54634 2.83333 10.2963 3.98833 10.9147 5.58667H13.0963C13.703 3.98833 15.453 2.83333 17.2497 2.83333C19.583 2.83333 21.333 4.58333 21.333 6.91667C21.333 10.2883 17.6697 13.6133 12.1163 18.6417Z" fill="#151515"/>
</svg>
