<svg width="28" height="28" viewBox="0 0 28 28" fill="none" xmlns="http://www.w3.org/2000/svg">
<path d="M13.9997 2.33325C7.55967 2.33325 2.33301 7.55992 2.33301 13.9999C2.33301 20.4399 7.55967 25.6666 13.9997 25.6666C20.4397 25.6666 25.6663 20.4399 25.6663 13.9999C25.6663 7.55992 20.4397 2.33325 13.9997 2.33325ZM8.24801 21.3266C8.74968 20.2766 11.8063 19.2499 13.9997 19.2499C16.193 19.2499 19.2613 20.2766 19.7513 21.3266C18.1647 22.5866 16.1697 23.3333 13.9997 23.3333C11.8297 23.3333 9.83468 22.5866 8.24801 21.3266ZM21.4197 19.6349C19.7513 17.6049 15.703 16.9166 13.9997 16.9166C12.2963 16.9166 8.24801 17.6049 6.57967 19.6349C5.34027 18.0177 4.66787 16.0374 4.66634 13.9999C4.66634 8.85492 8.85468 4.66659 13.9997 4.66659C19.1447 4.66659 23.333 8.85492 23.333 13.9999C23.333 16.1233 22.6097 18.0716 21.4197 19.6349ZM13.9997 6.99992C11.7363 6.99992 9.91634 8.81992 9.91634 11.0833C9.91634 13.3466 11.7363 15.1666 13.9997 15.1666C16.263 15.1666 18.083 13.3466 18.083 11.0833C18.083 8.81992 16.263 6.99992 13.9997 6.99992ZM13.9997 12.8333C13.0313 12.8333 12.2497 12.0516 12.2497 11.0833C12.2497 10.1149 13.0313 9.33325 13.9997 9.33325C14.968 9.33325 15.7497 10.1149 15.7497 11.0833C15.7497 12.0516 14.968 12.8333 13.9997 12.8333Z" fill="#151515"/>
</svg>
