<svg width="24" height="24" viewBox="0 0 24 24" fill="none" xmlns="http://www.w3.org/2000/svg">
<path d="M12.0007 0.333374C5.56065 0.333374 0.333984 5.56004 0.333984 12C0.333984 18.44 5.56065 23.6667 12.0007 23.6667C18.4407 23.6667 23.6673 18.44 23.6673 12C23.6673 5.56004 18.4407 0.333374 12.0007 0.333374ZM6.24898 19.3267C6.75065 18.2767 9.80732 17.25 12.0007 17.25C14.194 17.25 17.2623 18.2767 17.7523 19.3267C16.1657 20.5867 14.1707 21.3334 12.0007 21.3334C9.83065 21.3334 7.83565 20.5867 6.24898 19.3267ZM19.4207 17.635C17.7523 15.605 13.704 14.9167 12.0007 14.9167C10.2973 14.9167 6.24898 15.605 4.58065 17.635C3.34125 16.0179 2.66884 14.0375 2.66732 12C2.66732 6.85504 6.85565 2.66671 12.0007 2.66671C17.1457 2.66671 21.334 6.85504 21.334 12C21.334 14.1234 20.6107 16.0717 19.4207 17.635ZM12.0007 5.00004C9.73732 5.00004 7.91732 6.82004 7.91732 9.08337C7.91732 11.3467 9.73732 13.1667 12.0007 13.1667C14.264 13.1667 16.084 11.3467 16.084 9.08337C16.084 6.82004 14.264 5.00004 12.0007 5.00004ZM12.0007 10.8334C11.0323 10.8334 10.2507 10.0517 10.2507 9.08337C10.2507 8.11504 11.0323 7.33337 12.0007 7.33337C12.969 7.33337 13.7507 8.11504 13.7507 9.08337C13.7507 10.0517 12.969 10.8334 12.0007 10.8334Z" fill="#0756A5"/>
</svg>
