<svg width="24" height="24" viewBox="0 0 24 24" fill="none" xmlns="http://www.w3.org/2000/svg">
<path d="M17.142 13.1666C18.017 13.1666 18.787 12.6883 19.1837 11.9649L23.3603 4.39325C23.4586 4.21641 23.5091 4.01697 23.5067 3.81465C23.5042 3.61233 23.449 3.41415 23.3465 3.23972C23.244 3.0653 23.0976 2.92066 22.9221 2.82014C22.7465 2.71962 22.5477 2.66669 22.3453 2.66659H5.07866L3.98199 0.333252H0.166992V2.66659H2.50033L6.70033 11.5216L5.12533 14.3683C4.27366 15.9316 5.39366 17.8333 7.16699 17.8333H21.167V15.4999H7.16699L8.45033 13.1666H17.142ZM6.18699 4.99992H20.362L17.142 10.8333H8.95199L6.18699 4.99992ZM7.16699 18.9999C5.88366 18.9999 4.84533 20.0499 4.84533 21.3333C4.84533 22.6166 5.88366 23.6666 7.16699 23.6666C8.45033 23.6666 9.50033 22.6166 9.50033 21.3333C9.50033 20.0499 8.45033 18.9999 7.16699 18.9999ZM18.8337 18.9999C17.5503 18.9999 16.512 20.0499 16.512 21.3333C16.512 22.6166 17.5503 23.6666 18.8337 23.6666C20.117 23.6666 21.167 22.6166 21.167 21.3333C21.167 20.0499 20.117 18.9999 18.8337 18.9999Z" fill="#151515"/>
</svg>
