<svg width="22" height="22" viewBox="0 0 22 22" fill="none" xmlns="http://www.w3.org/2000/svg">
<path d="M5.50008 1.83334C5.01385 1.83334 4.54754 2.0265 4.20372 2.37031C3.8599 2.71413 3.66675 3.18045 3.66675 3.66668V18.3333C3.66675 18.8196 3.8599 19.2859 4.20372 19.6297C4.54754 19.9735 5.01385 20.1667 5.50008 20.1667H16.5001C16.9863 20.1667 17.4526 19.9735 17.7964 19.6297C18.1403 19.2859 18.3334 18.8196 18.3334 18.3333V7.33334L12.8334 1.83334H5.50008ZM5.50008 3.66668H11.9167V8.25001H16.5001V18.3333H5.50008V3.66668ZM7.33341 11V12.8333H14.6667V11H7.33341ZM7.33341 14.6667V16.5H11.9167V14.6667H7.33341Z" fill="#B8B8B8"/>
</svg>
