<svg width="22" height="22" viewBox="0 0 22 22" fill="none" xmlns="http://www.w3.org/2000/svg">
<path d="M4.58333 2.75C4.0971 2.75 3.63079 2.94315 3.28697 3.28697C2.94315 3.63079 2.75 4.0971 2.75 4.58333V17.4167C2.75 17.9029 2.94315 18.3692 3.28697 18.713C3.63079 19.0568 4.0971 19.25 4.58333 19.25H17.4167C17.9029 19.25 18.3692 19.0568 18.713 18.713C19.0568 18.3692 19.25 17.9029 19.25 17.4167V15.3267C19.5271 15.1667 19.7575 14.937 19.9183 14.6604C20.0791 14.3838 20.1647 14.0699 20.1667 13.75V8.25C20.1647 7.93006 20.0791 7.61619 19.9183 7.3396C19.7575 7.063 19.5271 6.8333 19.25 6.67333V4.58333C19.25 4.0971 19.0568 3.63079 18.713 3.28697C18.3692 2.94315 17.9029 2.75 17.4167 2.75H4.58333ZM4.58333 4.58333H17.4167V6.41667H11.9167C11.4304 6.41667 10.9641 6.60982 10.6203 6.95364C10.2765 7.29745 10.0833 7.76377 10.0833 8.25V13.75C10.0833 14.2362 10.2765 14.7025 10.6203 15.0464C10.9641 15.3902 11.4304 15.5833 11.9167 15.5833H17.4167V17.4167H4.58333V4.58333ZM11.9167 8.25H18.3333V13.75H11.9167V8.25ZM14.6667 9.625C14.302 9.625 13.9523 9.76987 13.6944 10.0277C13.4365 10.2856 13.2917 10.6353 13.2917 11C13.2917 11.3647 13.4365 11.7144 13.6944 11.9723C13.9523 12.2301 14.302 12.375 14.6667 12.375C15.0313 12.375 15.3811 12.2301 15.6389 11.9723C15.8968 11.7144 16.0417 11.3647 16.0417 11C16.0417 10.6353 15.8968 10.2856 15.6389 10.0277C15.3811 9.76987 15.0313 9.625 14.6667 9.625Z" fill="#B8B8B8"/>
</svg>
