<svg width="22" height="22" viewBox="0 0 22 22" fill="none" xmlns="http://www.w3.org/2000/svg">
<path d="M4.63832 2.75C4.24416 2.75 3.86832 2.87833 3.51999 3.135C3.17166 3.39167 2.96999 3.72167 2.87832 4.125L1.93416 8.1675C1.70499 9.16666 1.88832 10.0375 2.49332 10.7892L2.74999 11.0458V17.4167C2.74999 17.875 2.93332 18.3333 3.30916 18.6908C3.68499 19.0483 4.12499 19.25 4.58332 19.25H17.4167C17.875 19.25 18.3333 19.0667 18.6908 18.6908C19.0483 18.315 19.25 17.875 19.25 17.4167V11.0458L19.5067 10.7892C20.1117 10.0375 20.295 9.16666 20.0658 8.1675L19.1217 4.125C19.0025 3.72167 18.7917 3.39167 18.4525 3.135C18.1441 2.88482 17.7588 2.74882 17.3617 2.75H4.63832ZM17.3158 4.55583L18.3058 8.59833C18.3883 8.9925 18.3058 9.35 18.0492 9.67083C17.82 9.955 17.5358 10.0833 17.1875 10.0833C16.9033 10.0833 16.6558 9.99166 16.4542 9.77166C16.2525 9.56083 16.1425 9.31333 16.115 9.02L15.5558 4.58333L17.3158 4.55583ZM4.63832 4.58333H6.44416L5.88499 9.02C5.77499 9.74416 5.41749 10.0833 4.81249 10.0833C4.43666 10.0833 4.15249 9.955 3.95082 9.67083C3.69416 9.35 3.61166 8.9925 3.69416 8.59833L4.63832 4.58333ZM8.29582 4.58333H10.0833V8.89166C10.0833 9.2125 9.98249 9.4875 9.75333 9.735C9.52416 9.97333 9.23999 10.0833 8.89166 10.0833C8.57999 10.0833 8.31416 9.97333 8.10332 9.7075C7.89249 9.44167 7.79166 9.16666 7.79166 8.855V8.70833L8.29582 4.58333ZM11.9167 4.58333H13.7042L14.2083 8.70833C14.2817 9.09333 14.2083 9.41416 13.9425 9.68916C13.7042 9.96416 13.3925 10.0833 13.0167 10.0833C12.7325 10.0833 12.4758 9.97333 12.2467 9.735C12.1389 9.623 12.0544 9.49088 11.9977 9.34617C11.9411 9.20147 11.9136 9.04702 11.9167 8.89166V4.58333ZM6.82916 11.0458C7.40666 11.6142 8.12166 11.9167 8.98332 11.9167C9.75332 11.9167 10.4317 11.6142 11 11.0458C11.6325 11.6142 12.3292 11.9167 13.1083 11.9167C13.9058 11.9167 14.5933 11.6142 15.1708 11.0458C15.6842 11.6142 16.3717 11.9167 17.2333 11.9167H17.4442V17.4167H4.58332V11.9167H4.81249C5.64666 11.9167 6.31582 11.6142 6.82916 11.0458Z" fill="#B8B8B8"/>
</svg>
