<svg width="22" height="22" viewBox="0 0 22 22" fill="none" xmlns="http://www.w3.org/2000/svg">
<path d="M18.3333 7.33332H3.66659V5.49999H18.3333V7.33332ZM18.3333 16.5H3.66659V11H18.3333V16.5ZM18.3333 3.66666H3.66659C2.64909 3.66666 1.83325 4.48249 1.83325 5.49999V16.5C1.83325 16.9862 2.02641 17.4525 2.37022 17.7964C2.71404 18.1402 3.18036 18.3333 3.66659 18.3333H18.3333C18.8195 18.3333 19.2858 18.1402 19.6296 17.7964C19.9734 17.4525 20.1666 16.9862 20.1666 16.5V5.49999C20.1666 5.01376 19.9734 4.54744 19.6296 4.20363C19.2858 3.85981 18.8195 3.66666 18.3333 3.66666Z" fill="#B8B8B8"/>
</svg>
