<svg width="22" height="22" viewBox="0 0 22 22" fill="none" xmlns="http://www.w3.org/2000/svg">
<path d="M4.58341 5.5H21.0834V16.5H4.58341V5.5ZM12.8334 8.25C13.5628 8.25 14.2622 8.53973 14.778 9.05546C15.2937 9.57118 15.5834 10.2707 15.5834 11C15.5834 11.7293 15.2937 12.4288 14.778 12.9445C14.2622 13.4603 13.5628 13.75 12.8334 13.75C12.1041 13.75 11.4046 13.4603 10.8889 12.9445C10.3731 12.4288 10.0834 11.7293 10.0834 11C10.0834 10.2707 10.3731 9.57118 10.8889 9.05546C11.4046 8.53973 12.1041 8.25 12.8334 8.25ZM8.25008 7.33333C8.25008 7.81956 8.05693 8.28588 7.71311 8.6297C7.36929 8.97351 6.90298 9.16667 6.41675 9.16667V12.8333C6.90298 12.8333 7.36929 13.0265 7.71311 13.3703C8.05693 13.7141 8.25008 14.1804 8.25008 14.6667H17.4167C17.4167 14.1804 17.6099 13.7141 17.9537 13.3703C18.2975 13.0265 18.7639 12.8333 19.2501 12.8333V9.16667C18.7639 9.16667 18.2975 8.97351 17.9537 8.6297C17.6099 8.28588 17.4167 7.81956 17.4167 7.33333H8.25008ZM0.916748 9.16667H2.75008V18.3333H17.4167V20.1667H0.916748V9.16667Z" fill="#B8B8B8"/>
</svg>
