<svg width="32" height="32" viewBox="0 0 32 32" fill="none" xmlns="http://www.w3.org/2000/svg">
<rect width="32" height="32" rx="16" fill="#E13E3E"/>
<path d="M23.6341 12.9146C24.3149 12.9146 24.9955 12.9146 25.6795 12.9146C25.6833 13.5989 25.6898 14.2866 25.6936 14.9706C26.3776 14.9775 27.0653 14.9809 27.7496 14.9843C27.7496 15.6686 27.7496 16.3492 27.7496 17.0335C27.0656 17.037 26.3779 17.0404 25.6936 17.0438C25.6867 17.7316 25.6833 18.4156 25.6795 19.1033C24.9955 19.0999 24.3109 19.1033 23.6303 19.1033C23.6238 18.4156 23.6238 17.7316 23.6166 17.0472C22.9326 17.0401 22.2449 17.037 21.5605 17.0332C21.5605 16.3489 21.5605 15.6683 21.5605 14.984C22.2449 14.9806 22.9292 14.9772 23.6166 14.9703C23.62 14.2866 23.6269 13.5989 23.6341 12.9146Z" fill="white"/>
<path d="M5.08743 16.0092C4.94639 12.2958 8.19894 8.86428 11.916 8.81976C13.8105 8.65817 15.6536 9.39386 17.0873 10.5938C16.4992 11.2404 15.9008 11.8796 15.2616 12.478C13.9995 11.7111 12.4798 11.1268 11.0047 11.6458C8.62547 12.3232 7.1846 15.1324 8.06506 17.46C8.79421 19.8909 11.751 21.225 14.0683 20.2038C15.2682 19.7742 16.0593 18.667 16.4064 17.4774C15.0312 17.45 13.6557 17.4672 12.2806 17.4292C12.2771 16.611 12.2737 15.7959 12.2771 14.9777C14.5705 14.9743 16.8672 14.9674 19.1639 14.988C19.305 16.9927 19.0092 19.1381 17.7059 20.7471C15.9213 23.0438 12.6243 23.7179 9.94211 22.8169C7.09556 21.8819 5.02547 19.0142 5.08743 16.0092Z" fill="white"/>
</svg>
