<svg width="18" height="15" viewBox="0 0 18 15" fill="none" xmlns="http://www.w3.org/2000/svg">
<path d="M15.8611 3.97388C15.8611 4.127 15.8611 4.28013 15.8611 4.41138C15.8611 8.9395 12.4049 14.1676 6.10488 14.1676C4.15801 14.1676 2.36426 13.5989 0.833008 12.6364C1.09551 12.6583 1.37988 12.6801 1.64238 12.6801C3.23926 12.6801 4.72676 12.1333 5.90801 11.2145C4.39863 11.1926 3.12988 10.1864 2.71426 8.83013C2.93301 8.87388 3.12988 8.89575 3.37051 8.89575C3.67676 8.89575 3.98301 8.852 4.26738 8.7645C2.69238 8.45825 1.51113 7.08013 1.51113 5.41763C1.51113 5.39575 1.51113 5.39575 1.51113 5.37388C1.97051 5.63638 2.49551 5.7895 3.06426 5.81138C2.14551 5.19888 1.53301 4.14888 1.53301 2.94575C1.53301 2.31138 1.70801 1.72075 1.99238 1.21763C3.67676 3.29575 6.21426 4.652 9.05801 4.80513C8.99238 4.5645 8.97051 4.28013 8.97051 4.01763C8.97051 2.1145 10.5018 0.583252 12.4049 0.583252C13.3893 0.583252 14.2861 0.998877 14.8986 1.65513C15.6861 1.502 16.408 1.21763 17.0861 0.823877C16.8236 1.63325 16.2768 2.2895 15.5768 2.727C16.2768 2.6395 16.933 2.4645 17.5455 2.18013C17.108 2.88013 16.5393 3.49263 15.8611 3.97388Z" fill="#212121"/>
</svg>
