<svg width="18" height="16" viewBox="0 0 18 16" fill="none" xmlns="http://www.w3.org/2000/svg">
<path fill-rule="evenodd" clip-rule="evenodd" d="M13.1126 14.9325C14.0912 15.3606 14.4581 14.4636 14.4581 14.4636L17.0472 1.45704C17.0268 0.580422 15.8444 1.11047 15.8444 1.11047L1.34967 6.79828C1.34967 6.79828 0.65653 7.04291 0.717689 7.47103C0.778848 7.89914 1.32928 8.10301 1.32928 8.10301L4.97845 9.32619C4.97845 9.32619 6.07931 12.9346 6.30356 13.6277C6.50743 14.3005 6.69091 14.3209 6.69091 14.3209C6.89477 14.4024 7.07825 14.2597 7.07825 14.2597L9.44307 12.1191L13.1126 14.9325ZM13.7445 3.76067C13.7445 3.76067 14.2541 3.45487 14.2337 3.76067C14.2337 3.76067 14.3153 3.80144 14.0503 4.08685C13.8056 4.33149 8.03627 9.50963 7.26159 10.2028C7.20043 10.2435 7.15966 10.3047 7.15966 10.3862L6.93541 12.3026C6.89463 12.5064 6.62961 12.5268 6.56845 12.3433L5.61029 9.20384C5.56952 9.08152 5.61029 8.93881 5.73261 8.85727L13.7445 3.76067Z" fill="#fff"/>
</svg>
