<svg width="18" height="18" viewBox="0 0 18 18" fill="none" xmlns="http://www.w3.org/2000/svg">
<path d="M17.1306 10.4573C17.125 10.488 17.1212 10.5191 17.1153 10.5498L17.0854 10.3736C17.1018 10.401 17.1153 10.4296 17.1306 10.4573C17.2209 9.96563 17.2683 9.46234 17.2683 8.95933C17.2683 7.84384 17.0499 6.76161 16.6184 5.74285C16.2022 4.75872 15.6066 3.87492 14.8472 3.11611C14.089 2.35731 13.2046 1.76173 12.2211 1.34547C11.2026 0.914515 10.1203 0.696129 9.00485 0.696129C8.47912 0.696129 7.95255 0.74546 7.44012 0.843844C7.43901 0.844121 7.43762 0.844121 7.43624 0.844399C7.46506 0.859641 7.49416 0.873221 7.52243 0.889018L7.34866 0.861858C7.37776 0.856316 7.40714 0.850219 7.43624 0.844399C6.73313 0.470537 5.94245 0.270996 5.14207 0.270996C3.83536 0.270996 2.6068 0.779825 1.68281 1.70409C0.759106 2.62807 0.25 3.85663 0.25 5.16335C0.25 5.99504 0.463952 6.81261 0.865528 7.53511C0.870793 7.50518 0.874396 7.47497 0.880216 7.44504L0.910147 7.61825C0.894627 7.59109 0.881048 7.56282 0.865528 7.53511C0.784049 8.0032 0.741092 8.48154 0.741092 8.95933C0.741092 10.0751 0.959478 11.1571 1.39099 12.1761C1.80669 13.1605 2.40255 14.0437 3.16108 14.8026C3.92044 15.5614 4.80369 16.1578 5.78836 16.5729C6.80685 17.0047 7.88936 17.2234 9.00485 17.2234C9.4904 17.2234 9.97706 17.179 10.4521 17.0948C10.4244 17.0793 10.3961 17.0651 10.3678 17.0488L10.5444 17.0798C10.5139 17.0856 10.4831 17.0892 10.4521 17.0948C11.184 17.5088 12.0126 17.7289 12.8588 17.7289C14.1652 17.7289 15.3932 17.2209 16.3172 16.2963C17.2414 15.3729 17.75 14.1441 17.75 12.8374C17.75 12.0029 17.5349 11.1825 17.1306 10.4573ZM9.03783 14.0202C6.10209 14.0202 4.78872 12.5768 4.78872 11.4952C4.78872 10.9403 5.19833 10.5515 5.76287 10.5515C7.01914 10.5515 6.69378 12.3554 9.03783 12.3554C10.2378 12.3554 10.9005 11.7038 10.9005 11.0371C10.9005 10.636 10.7026 10.1915 9.91248 9.99667L7.30127 9.34483C5.19833 8.81744 4.81671 7.68061 4.81671 6.61196C4.81671 4.39318 6.90579 3.56009 8.86767 3.56009C10.6749 3.56009 12.8053 4.5589 12.8053 5.89001C12.8053 6.46036 12.3114 6.7921 11.7471 6.7921C10.6749 6.7921 10.8722 5.30801 8.71247 5.30801C7.64077 5.30801 7.04713 5.79329 7.04713 6.4878C7.04713 7.18093 7.89352 7.40236 8.62849 7.56975L10.5613 7.99877C12.6783 8.47046 13.2152 9.7065 13.2152 10.8708C13.2152 12.6738 11.8311 14.0202 9.03783 14.0202ZM10.3678 17.0488C10.3961 17.0651 10.4244 17.0793 10.4521 17.0948C10.4831 17.0892 10.5139 17.0856 10.5444 17.0798L10.3678 17.0488ZM17.1153 10.5498C17.1212 10.5191 17.125 10.488 17.1306 10.4573C17.1153 10.4296 17.1018 10.401 17.0854 10.3736L17.1153 10.5498ZM0.880216 7.44504C0.874396 7.47497 0.870793 7.50518 0.865528 7.53511C0.881048 7.56282 0.894627 7.59109 0.910147 7.61825L0.880216 7.44504ZM7.52243 0.889018C7.49416 0.873221 7.46506 0.859641 7.43624 0.844399C7.40714 0.850219 7.37776 0.856316 7.34866 0.861858L7.52243 0.889018Z" fill="#fff"/>
</svg>
