<svg width="18" height="14" viewBox="0 0 18 14" fill="none" xmlns="http://www.w3.org/2000/svg">
<path fill-rule="evenodd" clip-rule="evenodd" d="M15.8471 1.24833C16.5967 1.45014 17.1877 2.04116 17.3895 2.79074C17.7643 4.16018 17.7499 7.01437 17.7499 7.01437C17.7499 7.01437 17.7499 9.85414 17.3895 11.2236C17.1877 11.9732 16.5967 12.5642 15.8471 12.766C14.4777 13.1264 8.99996 13.1264 8.99996 13.1264C8.99996 13.1264 3.53664 13.1264 2.15279 12.7516C1.40321 12.5498 0.812189 11.9587 0.610377 11.2092C0.25 9.85414 0.25 6.99995 0.25 6.99995C0.25 6.99995 0.25 4.16018 0.610377 2.79074C0.812189 2.04116 1.41762 1.43572 2.15279 1.23391C3.52223 0.873535 8.99996 0.873535 8.99996 0.873535C8.99996 0.873535 14.4777 0.873535 15.8471 1.24833ZM11.811 6.99998L7.25579 9.62352V4.37643L11.811 6.99998Z" fill="#fff"/>
</svg>
